<svg width="40" height="33" viewBox="0 0 40 33" fill="none" xmlns="http://www.w3.org/2000/svg">
<path d="M0.000239512 13.997C-0.017161 15.5092 0.914969 16.8701 2.33119 17.4003V10.9202C2.33119 10.8269 2.37777 10.6871 2.37777 10.5938C0.952001 11.1198 0.00371961 12.4772 0.000239512 13.997Z" fill="white"/>
<path d="M12.7274 22.0156H6.62018L8.90455 30.3139C9.24284 31.5803 10.3909 32.4605 11.7017 32.4585C12.6344 32.4695 13.5168 32.0369 14.0794 31.293C14.6473 30.5852 14.8225 29.6398 14.5455 28.7756L12.7274 22.0156Z" fill="white"/>
<path d="M2.37786 10.5471H2.42444V10.5005C2.42444 10.5471 2.42444 10.5471 2.37786 10.5471Z" fill="white"/>
<path d="M35.8043 9.89444H35.4313V18.286H35.8043C38.1216 18.286 40 16.4075 40 14.0903C40 11.773 38.1215 9.89444 35.8043 9.89444Z" fill="white"/>
<path d="M3.72983 10.9201V17.5401C3.78025 19.2545 5.18496 20.6178 6.89993 20.6171H15.3848V8.02964H6.89993C5.22163 8.02964 3.72983 9.24179 3.72983 10.9201Z" fill="white"/>
<path d="M16.7833 20.8035L34.0326 27.7032V0.756958L16.7833 7.65674V20.8035Z" fill="white"/>
</svg>
